<svg width="760" height="560" viewBox="0 0 760 560" fill="none" xmlns="http://www.w3.org/2000/svg">
  <defs>
    <linearGradient id="abg" x1="50" y1="44" x2="710" y2="510" gradientUnits="userSpaceOnUse">
      <stop stop-color="#FFF8EF"/>
      <stop offset="1" stop-color="#EFF6F6"/>
    </linearGradient>
    <linearGradient id="ateal" x1="0" y1="0" x2="1" y2="1">
      <stop stop-color="#2B9C90"/>
      <stop offset="1" stop-color="#145653"/>
    </linearGradient>
    <linearGradient id="aamber" x1="0" y1="0" x2="1" y2="1">
      <stop stop-color="#F8C86C"/>
      <stop offset="1" stop-color="#D98212"/>
    </linearGradient>
  </defs>
  <rect x="24" y="24" width="712" height="512" rx="38" fill="url(#abg)"/>
  <path d="M118 278C190 216 266 216 334 278C400 338 474 338 550 278C606 234 648 226 696 250" stroke="#E6D9C0" stroke-width="10" stroke-linecap="round"/>
  <rect x="88" y="234" width="92" height="92" rx="28" fill="url(#ateal)"/>
  <rect x="234" y="180" width="92" height="92" rx="28" fill="url(#aamber)"/>
  <rect x="380" y="232" width="92" height="92" rx="28" fill="url(#ateal)"/>
  <rect x="526" y="178" width="92" height="92" rx="28" fill="url(#aamber)"/>
  <circle cx="134" cy="250" r="12" fill="#FFF8EF"/>
  <rect x="120" y="272" width="28" height="12" rx="6" fill="#FFF8EF"/>
  <rect x="264" y="212" width="32" height="32" rx="10" fill="#FFF8EF"/>
  <path d="M410 254H442" stroke="#FFF8EF" stroke-width="10" stroke-linecap="round"/>
  <path d="M410 286H442" stroke="#FFF8EF" stroke-width="10" stroke-linecap="round"/>
  <circle cx="572" cy="224" r="18" fill="#FFF8EF"/>
  <path d="M572 212V236" stroke="#D98212" stroke-width="8" stroke-linecap="round"/>
  <path d="M560 224H584" stroke="#D98212" stroke-width="8" stroke-linecap="round"/>
  <rect x="124" y="370" width="512" height="110" rx="32" fill="#FFFDFB" stroke="#F1DFC4"/>
  <rect x="156" y="404" width="92" height="14" rx="7" fill="#E5ECEB"/>
  <rect x="274" y="404" width="92" height="14" rx="7" fill="#F8C86C"/>
  <rect x="392" y="404" width="92" height="14" rx="7" fill="#2B9C90" fill-opacity="0.78"/>
  <rect x="510" y="404" width="92" height="14" rx="7" fill="#E5ECEB"/>
  <circle cx="280" cy="102" r="44" fill="#FFFDFB" stroke="#F2D9B1"/>
  <circle cx="530" cy="110" r="54" fill="#B4DFD9" fill-opacity="0.55"/>
</svg>
