<svg width="128" height="128" viewBox="0 0 128 128" fill="none" xmlns="http://www.w3.org/2000/svg">
  <rect width="128" height="128" rx="34" fill="url(#bg)"/>
  <rect x="12" y="12" width="104" height="104" rx="28" fill="url(#panel)" fill-opacity="0.92"/>
  <path d="M42 90V38H67.5C80.479 38 88 44.502 88 54.654C88 61.933 84.053 67.118 77.176 69.179L89 90H74.733L64.567 71.613H55.307V90H42ZM55.307 61.159H65.29C71.425 61.159 75.08 58.293 75.08 53.394C75.08 48.423 71.425 45.557 65.29 45.557H55.307V61.159Z" fill="#FFF9F0"/>
  <circle cx="92" cy="37" r="10" fill="#F59E0B"/>
  <defs>
    <linearGradient id="bg" x1="14" y1="11" x2="112" y2="116" gradientUnits="userSpaceOnUse">
      <stop stop-color="#C2410C"/>
      <stop offset="0.55" stop-color="#8B5CF6"/>
      <stop offset="1" stop-color="#0F766E"/>
    </linearGradient>
    <linearGradient id="panel" x1="24" y1="20" x2="108" y2="108" gradientUnits="userSpaceOnUse">
      <stop stop-color="#1F2937"/>
      <stop offset="1" stop-color="#334155"/>
    </linearGradient>
  </defs>
</svg>
